<?xml version="1.0" standalone="no"?>
<!DOCTYPE svg PUBLIC "-//W3C//DTD SVG 20010904//EN"
 "http://www.w3.org/TR/2001/REC-SVG-20010904/DTD/svg10.dtd">
<svg version="1.0" xmlns="http://www.w3.org/2000/svg"
 width="200.000000pt" height="200.000000pt" viewBox="0 0 200.000000 200.000000"
 preserveAspectRatio="xMidYMid meet">
<metadata>
Created by potrace 1.14, written by Peter Selinger 2001-2017
</metadata>
<g transform="translate(0.000000,200.000000) scale(0.100000,-0.100000)"
fill="#000000" stroke="none">
<path d="M780 1621 c0 -12 -3 -21 -8 -21 -4 0 -12 -10 -17 -22 -6 -13 -18 -23
-27 -23 -9 0 -20 -4 -24 -8 -6 -6 4 -8 34 -7 9 1 21 -84 12 -90 -9 -6 -130
-411 -130 -435 0 -15 6 -16 38 -10 20 3 40 10 45 14 4 4 17 48 28 97 32 136
36 140 43 39 10 -131 11 -135 46 -135 16 0 31 4 34 9 3 5 -1 60 -9 122 -8 63
-19 154 -24 204 -5 49 -14 91 -20 93 -17 6 -13 23 10 43 19 17 20 19 5 41 -9
12 -16 39 -16 60 0 20 -4 40 -10 43 -5 3 -10 -3 -10 -14z m-13 -318 c-3 -10
-5 -4 -5 12 0 17 2 24 5 18 2 -7 2 -21 0 -30z"/>
<path d="M203 1606 c8 -20 -48 -32 -69 -15 -10 8 -18 9 -25 2 -11 -11 32 -28
63 -24 9 1 19 -2 22 -7 10 -16 -28 -115 -46 -120 -22 -5 -31 -101 -26 -285 2
-109 6 -140 18 -147 17 -11 87 -13 154 -4 43 6 46 9 46 36 l0 28 -82 -2 -83
-3 0 80 c0 80 0 80 28 83 21 3 27 9 27 28 0 19 -5 24 -25 24 -25 0 -26 2 -23
58 l3 57 60 10 c43 8 61 15 63 28 2 10 -3 17 -12 17 -20 0 -43 36 -51 83 -7
36 -6 37 21 37 16 0 38 8 49 17 l20 15 -20 -5 c-11 -2 -24 -6 -30 -7 -27 -6
-55 1 -55 15 0 8 -7 15 -16 15 -10 0 -14 -6 -11 -14z"/>
<path d="M519 1553 c-1 -5 -1 -12 0 -17 1 -4 -3 -14 -10 -22 -6 -8 -8 -25 -5
-39 5 -19 3 -25 -10 -25 -29 0 -78 -45 -104 -96 -19 -38 -25 -69 -28 -139 -3
-80 -1 -95 20 -134 29 -54 76 -81 140 -81 64 0 78 7 78 40 0 27 -1 27 -44 23
-56 -7 -79 7 -105 60 -27 57 -28 155 -2 214 21 44 37 56 89 68 28 6 32 4 32
-14 0 -16 6 -21 24 -21 14 0 28 5 31 10 3 6 1 10 -4 10 -6 0 -11 11 -11 25 0
17 -8 29 -24 36 -25 12 -41 48 -37 87 2 14 -3 22 -13 22 -9 0 -17 -3 -17 -7z"/>
<path d="M1733 1090 c-5 -26 -12 -32 -60 -46 -30 -9 -60 -13 -68 -10 -11 4
-31 -21 -23 -30 2 -1 30 4 63 12 77 18 104 18 111 -1 4 -8 -18 -68 -47 -133
-53 -116 -54 -118 -54 -217 0 -98 2 -107 43 -188 2 -4 -26 -7 -63 -5 l-67 3
-23 75 c-12 41 -32 97 -43 123 -12 27 -22 50 -22 51 0 2 17 8 39 14 50 15 89
55 97 99 9 48 -19 85 -77 99 l-44 11 0 76 1 77 -28 0 c-37 0 -61 -38 -65 -103
-1 -28 -9 -57 -17 -66 -9 -11 -19 -87 -32 -238 l-18 -223 -69 0 -70 0 7 50 c4
28 7 113 7 190 l0 139 55 7 c53 6 54 7 54 39 0 31 -2 33 -46 39 -26 3 -83 6
-128 6 l-82 0 -9 32 c-12 39 -69 78 -88 59 -9 -10 -8 -16 7 -27 11 -7 17 -17
13 -20 -4 -4 -13 -1 -22 6 -20 17 -32 5 -15 -16 17 -19 20 -51 9 -80 -7 -19
-3 -22 29 -28 20 -3 53 -6 74 -6 36 0 36 -1 42 -47 3 -27 8 -114 12 -195 l6
-148 -74 0 c-53 0 -75 4 -75 13 0 21 -44 411 -49 435 -3 17 -11 22 -38 22
l-33 0 -62 -212 c-34 -117 -66 -223 -71 -236 -12 -27 -30 -20 -30 10 0 20 -3
21 -90 15 l-90 -7 0 94 0 94 30 6 c39 7 44 46 5 46 -24 0 -25 2 -25 65 0 72
-5 67 90 83 32 5 46 13 48 26 4 17 -3 18 -87 14 -50 -2 -94 -8 -98 -12 -5 -4
-9 -109 -11 -232 l-3 -224 -75 0 -75 0 8 73 c4 39 7 125 6 189 l-2 117 53 6
c50 7 54 9 60 38 3 16 4 33 1 36 -3 3 -78 7 -165 9 l-160 4 0 -41 0 -41 49 0
c39 0 51 -4 55 -17 3 -10 8 -98 12 -195 l7 -178 -77 0 c-74 0 -76 -1 -76 -25
l0 -25 960 0 960 0 0 25 c0 25 -1 25 -85 25 -47 0 -85 2 -85 4 0 3 13 24 29
48 32 48 61 135 61 183 0 52 -40 188 -66 226 -18 26 -24 48 -24 88 0 44 -3 54
-19 58 -11 3 -21 13 -24 24 -3 11 -14 19 -26 19 -16 0 -23 -8 -28 -30z m-256
-77 c-3 -10 -5 -4 -5 12 0 17 2 24 5 18 2 -7 2 -21 0 -30z m53 -138 c48 -25
36 -71 -20 -75 -66 -6 -70 -3 -70 45 0 43 1 45 30 45 17 0 44 -7 60 -15z m287
-10 c42 -30 55 -132 27 -224 -18 -62 -63 -117 -88 -108 -26 10 -56 86 -56 145
0 84 49 202 84 202 6 0 21 -7 33 -15z m-940 -87 c-2 -13 -4 -3 -4 22 0 25 2
35 4 23 2 -13 2 -33 0 -45z m16 -195 l5 -113 -45 0 c-38 0 -44 3 -39 18 3 9
15 58 26 107 26 114 29 120 39 109 5 -5 11 -60 14 -121z m557 -10 c11 -38 23
-76 26 -85 4 -14 -1 -18 -24 -18 l-29 0 -1 85 c-1 47 1 85 3 85 2 0 14 -30 25
-67z"/>
</g>
</svg>
